<?xml version="1.0" encoding="utf-8"?>
<!-- Generator: Adobe Illustrator 17.0.0, SVG Export Plug-In . SVG Version: 6.00 Build 0)  -->
<!DOCTYPE svg PUBLIC "-//W3C//DTD SVG 1.1//EN" "http://www.w3.org/Graphics/SVG/1.1/DTD/svg11.dtd">
<svg version="1.1" id="background" xmlns="http://www.w3.org/2000/svg" xmlns:xlink="http://www.w3.org/1999/xlink" x="0px" y="0px"
	 width="192.5px" height="122.453px" viewBox="-17.25 16.547 192.5 122.453" enable-background="new -17.25 16.547 192.5 122.453"
	 xml:space="preserve">
<path opacity="0.2" fill="#FFFFFF" d="M166.596,68.94c-0.608,2.101,0.468,4.351,2.549,5.145c2.193,0.836,4.649-0.264,5.485-2.457
	c0.836-2.193-0.264-4.649-2.457-5.485c-1.07-0.408-2.2-0.349-3.177,0.067l-24.093-42.008c0.629-0.466,1.143-1.104,1.442-1.89
	c0.836-2.193-0.264-4.649-2.457-5.485c-2.193-0.836-4.649,0.264-5.485,2.457c-0.165,0.432-0.234,0.872-0.255,1.309l-68.99,4.83
	c-0.216-0.832-0.813-1.553-1.677-1.882c-1.419-0.541-3.008,0.17-3.549,1.59c-0.307,0.805-0.2,1.66,0.201,2.352l-74.259,63.65
	c-0.386-0.356-0.839-0.651-1.36-0.849c-2.193-0.836-4.649,0.264-5.485,2.457c-0.836,2.193,0.264,4.649,2.457,5.485
	s4.649-0.264,5.485-2.457c0.326-0.855,0.35-1.747,0.138-2.571l45.849-17.774c0.21,0.286,0.499,0.518,0.855,0.654
	c0.971,0.37,2.052-0.106,2.444-1.061l47.859,5.989c-0.874,2.429,0.346,5.12,2.769,6.044c2.046,0.78,4.282,0.039,5.513-1.649
	l42.359,45.94c-0.309,0.362-0.575,0.769-0.754,1.238c-0.836,2.193,0.264,4.649,2.457,5.485c2.193,0.836,4.649-0.264,5.485-2.457
	c0.836-2.193-0.264-4.649-2.457-5.485c-0.161-0.061-0.324-0.09-0.486-0.132l0.611-70.759L166.596,68.94z M144.038,24.701
	l24.092,42.007c-0.463,0.344-0.853,0.786-1.149,1.307l-23.353-9.866l0.289-33.406C143.956,24.728,143.998,24.718,144.038,24.701z
	 M138.213,21.591c0.268,1.399,1.22,2.633,2.648,3.178c0.678,0.259,1.379,0.313,2.052,0.226l-0.282,32.735L69.178,26.698
	c0.02-0.093,0.037-0.184,0.048-0.277L138.213,21.591z M64.784,28.242c0.219,0.177,0.461,0.332,0.738,0.438
	c0.551,0.21,1.126,0.227,1.657,0.092l22.977,49.78c-0.624,0.372-1.175,0.87-1.58,1.505l-48.198-6.031
	c-0.095-0.665-0.53-1.262-1.202-1.518c-0.986-0.376-2.091,0.119-2.467,1.105c-0.111,0.291-0.138,0.589-0.107,0.879L-9.261,92.269
	c-0.068-0.128-0.133-0.256-0.214-0.377L64.784,28.242z M142.008,129.857c-0.911-0.006-1.793,0.273-2.52,0.799L96.924,84.493
	c0.028-0.065,0.069-0.121,0.094-0.189c0.935-2.451-0.295-5.196-2.746-6.131c-1.075-0.41-2.199-0.383-3.209-0.04L68.089,28.355
	c0.275-0.195,0.515-0.443,0.706-0.734l73.826,31.189L142.008,129.857z"/>
</svg>
