<?xml version="1.0" encoding="utf-8"?>
<!-- Generator: Adobe Illustrator 17.0.0, SVG Export Plug-In . SVG Version: 6.00 Build 0)  -->
<!DOCTYPE svg PUBLIC "-//W3C//DTD SVG 1.1//EN" "http://www.w3.org/Graphics/SVG/1.1/DTD/svg11.dtd">
<svg version="1.1" id="background" xmlns="http://www.w3.org/2000/svg" xmlns:xlink="http://www.w3.org/1999/xlink" x="0px" y="0px"
	 width="171.5px" height="132.5px" viewBox="0 0 171.5 132.5" enable-background="new 0 0 171.5 132.5" xml:space="preserve">
<path fill="#DBE0E6" d="M163.035,40.601c0.181,2.18,1.988,3.899,4.215,3.899c2.347,0,4.25-1.903,4.25-4.25S169.597,36,167.25,36
	c-1.145,0-2.18,0.458-2.944,1.195L126.826,6.53c0.422-0.66,0.674-1.439,0.674-2.28c0-2.347-1.903-4.25-4.25-4.25S119,1.903,119,4.25
	c0,0.462,0.092,0.898,0.228,1.314L56.488,34.661c-0.498-0.7-1.313-1.161-2.238-1.161c-1.519,0-2.75,1.231-2.75,2.75
	c0,0.862,0.405,1.622,1.026,2.126L5.823,124.309C5.336,124.114,4.807,124,4.25,124C1.903,124,0,125.903,0,128.25
	s1.903,4.25,4.25,4.25s4.25-1.903,4.25-4.25c0-0.915-0.295-1.757-0.787-2.451l36.506-32.945c0.298,0.192,0.651,0.306,1.032,0.306
	c1.039,0,1.88-0.83,1.906-1.862L94.009,79.84c0.049,2.581,2.148,4.66,4.741,4.66c2.19,0,4.015-1.49,4.564-3.505l55.949,27.83
	c-0.16,0.448-0.263,0.923-0.263,1.425c0,2.347,1.903,4.25,4.25,4.25s4.25-1.903,4.25-4.25s-1.903-4.25-4.25-4.25
	c-0.172,0-0.335,0.031-0.501,0.05l-24.643-66.332L163.035,40.601z M126.194,7.305l37.479,30.665
	c-0.31,0.486-0.517,1.038-0.608,1.631l-25.336-0.897L126.095,7.388C126.127,7.359,126.163,7.335,126.194,7.305z M119.643,6.474
	c0.749,1.212,2.078,2.026,3.607,2.026c0.726,0,1.4-0.199,1.998-0.52l11.401,30.687l-79.689-2.821
	c-0.014-0.094-0.031-0.185-0.054-0.276L119.643,6.474z M53.404,38.854C53.672,38.941,53.953,39,54.25,39
	c0.59,0,1.133-0.189,1.581-0.505L95.038,76.82c-0.45,0.57-0.788,1.232-0.94,1.969l-47.183,11.54c-0.326-0.587-0.945-0.99-1.664-0.99
	c-1.055,0-1.911,0.856-1.911,1.911c0,0.311,0.081,0.6,0.213,0.859L7.035,125.063c-0.109-0.095-0.216-0.192-0.334-0.276
	L53.404,38.854z M161.768,106.281c-0.853,0.319-1.578,0.894-2.07,1.645L103.479,79.96c0.003-0.071,0.021-0.138,0.021-0.21
	c0-2.623-2.127-4.75-4.75-4.75c-1.15,0-2.191,0.426-3.013,1.106L56.533,37.782c0.188-0.28,0.323-0.597,0.398-0.937l80.094,2.835
	L161.768,106.281z"/>
</svg>
